<svg width="28" height="28" viewBox="0 0 28 28" fill="none" xmlns="http://www.w3.org/2000/svg">
<path d="M7.77877 8.9097C7.65408 10.2397 7.56658 12.5934 8.35189 13.5953C8.35189 13.5953 7.98221 11.0097 11.2963 7.76563C12.6306 6.4597 12.9391 4.68345 12.4731 3.35126C12.2085 2.59657 11.725 1.97313 11.305 1.53782C11.06 1.28188 11.2481 0.859696 11.6047 0.875009C13.7616 0.971259 17.2572 1.57063 18.7425 5.29813C19.3944 6.93438 19.4425 8.62532 19.1319 10.3447C18.935 11.4428 18.235 13.8841 19.8319 14.1838C20.9716 14.3981 21.5228 13.4925 21.77 12.8406C21.8728 12.5694 22.2294 12.5016 22.4219 12.7181C24.3469 14.9078 24.511 17.4869 24.1128 19.7072C23.3428 23.9991 18.9963 27.1228 14.6781 27.1228C9.28377 27.1228 4.98971 24.0363 3.87627 18.4494C3.42783 16.1941 3.65533 11.7316 7.13346 8.58157C7.39158 8.34532 7.81377 8.55532 7.77877 8.9097Z" fill="url(#paint0_radial_389_1353)"/>
<path d="M16.6491 16.9356C14.6607 14.3762 15.551 11.4559 16.0388 10.2922C16.1044 10.1391 15.9294 9.99468 15.7916 10.0887C14.9363 10.6706 13.1841 12.04 12.3682 13.9672C11.2635 16.5725 11.3422 17.8478 11.9963 19.4053C12.39 20.3437 11.9328 20.5428 11.7032 20.5778C11.48 20.6128 11.2744 20.4641 11.1103 20.3087C10.6385 19.8555 10.3021 19.2799 10.1391 18.6462C10.1041 18.5106 9.9269 18.4734 9.84596 18.585C9.23346 19.4316 8.91628 20.79 8.90097 21.7503C8.85284 24.7187 11.305 27.125 14.2713 27.125C18.0097 27.125 20.7332 22.9906 18.585 19.5344C17.9616 18.5281 17.3753 17.8697 16.6491 16.9356Z" fill="url(#paint1_radial_389_1353)"/>
<defs>
<radialGradient id="paint0_radial_389_1353" cx="0" cy="0" r="1" gradientTransform="matrix(-15.4409 -0.0670135 -0.110094 25.3354 13.6097 27.1908)" gradientUnits="userSpaceOnUse">
<stop offset="0.314" stop-color="#FF9800"/>
<stop offset="0.662" stop-color="#FF6D00"/>
<stop offset="0.972" stop-color="#F44336"/>
</radialGradient>
<radialGradient id="paint1_radial_389_1353" cx="0" cy="0" r="1" gradientTransform="matrix(-0.163184 16.1553 12.158 0.122792 14.4769 11.8253)" gradientUnits="userSpaceOnUse">
<stop offset="0.214" stop-color="#FFF176"/>
<stop offset="0.328" stop-color="#FFF27D"/>
<stop offset="0.487" stop-color="#FFF48F"/>
<stop offset="0.672" stop-color="#FFF7AD"/>
<stop offset="0.793" stop-color="#FFF9C4"/>
<stop offset="0.822" stop-color="#FFF8BD" stop-opacity="0.804"/>
<stop offset="0.863" stop-color="#FFF6AB" stop-opacity="0.529"/>
<stop offset="0.91" stop-color="#FFF38D" stop-opacity="0.209"/>
<stop offset="0.941" stop-color="#FFF176" stop-opacity="0"/>
</radialGradient>
</defs>
</svg>
