<svg width="21" height="21" viewBox="0 0 21 21" fill="none" xmlns="http://www.w3.org/2000/svg">
<path d="M11.5834 14.6147H9.03055C8.51212 14.6147 8.08555 15.0347 8.09212 15.5531V18.1059C8.09212 18.6244 8.51212 19.0444 9.03055 19.0444H9.1933C9.30394 19.2416 9.46513 19.4058 9.66029 19.5201C9.85544 19.6344 10.0775 19.6947 10.3037 19.6947C10.5298 19.6947 10.7519 19.6344 10.9471 19.5201C11.1422 19.4058 11.3034 19.2416 11.4141 19.0444H11.5834C12.1018 19.0444 12.5218 18.6244 12.5218 18.1059V15.5531C12.5218 15.0347 12.1018 14.6147 11.5834 14.6147Z" fill="#9B9B9B"/>
<path d="M11.9181 15.1791C12.0756 15.1791 12.2003 15.0609 12.2134 14.91C12.2594 14.3456 12.5022 12.9741 13.8278 11.5041C14.4605 11.0061 14.9801 10.3795 15.3523 9.66561C15.7245 8.95172 15.9408 8.1669 15.9869 7.36313C16 7.20563 16.0065 7.10063 16.0065 7.035V6.96938C15.9672 3.8325 13.4275 1.3125 10.2972 1.3125C8.79487 1.31242 7.35321 1.90514 6.28541 2.96188C5.21761 4.01862 4.60992 5.45403 4.59436 6.95625C4.59436 6.95625 4.58779 7.11375 4.61404 7.37625C4.71904 9.04312 5.53279 10.5197 6.77311 11.4975C8.09873 12.9741 8.36123 14.3456 8.40717 14.91C8.42029 15.0609 8.54498 15.1791 8.70248 15.1791H11.9181Z" fill="#FCD53F"/>
<path d="M10.3037 7.02185C11.3669 7.02185 12.2331 7.88154 12.2462 8.94466V8.99716C12.2462 9.01685 12.2462 9.0431 12.2397 9.08248C12.2069 9.63373 11.9378 10.1522 11.5047 10.4934L11.4587 10.5262L11.4194 10.5656C10.6975 11.3662 10.5466 13.4006 10.5203 14.5162H10.0937C10.0609 13.4006 9.90343 11.3662 9.18156 10.5656L9.14218 10.5262L9.09625 10.4934C8.87948 10.322 8.7018 10.1063 8.57505 9.86071C8.4483 9.61514 8.37541 9.34534 8.36125 9.06935C8.36125 9.0431 8.35468 9.02341 8.35468 9.01029V8.95123C8.37437 7.8881 9.24718 7.02185 10.3037 7.02185ZM10.3037 6.3656C9.76373 6.3658 9.23718 6.53422 8.79729 6.84745C8.35739 7.16069 8.02601 7.60319 7.84919 8.11344C7.67237 8.62369 7.6589 9.17635 7.81065 9.69461C7.96239 10.2129 8.27183 10.671 8.69593 11.0053C9.48343 11.8847 9.44406 15.179 9.44406 15.179H11.1766C11.1766 15.179 11.1241 11.8847 11.9181 11.0119C12.4825 10.5656 12.8566 9.88966 12.9025 9.12185C12.9091 9.04966 12.9091 9.00373 12.9091 8.97091V8.94466C12.9021 8.25825 12.6246 7.6023 12.1368 7.11938C11.6489 6.63645 10.9902 6.36557 10.3037 6.3656Z" fill="#FFB02E"/>
<path d="M12.5782 16.441C12.6207 16.4336 12.6613 16.4179 12.6978 16.3948C12.7342 16.3717 12.7657 16.3416 12.7905 16.3063C12.8153 16.2711 12.8329 16.2312 12.8423 16.1891C12.8517 16.1471 12.8527 16.1035 12.8453 16.061C12.8379 16.0186 12.8222 15.9779 12.7991 15.9415C12.776 15.9051 12.746 15.8736 12.7107 15.8488C12.6754 15.824 12.6356 15.8064 12.5935 15.797C12.5514 15.7876 12.5079 15.7865 12.4654 15.7939L8.04224 16.5683C7.99976 16.5757 7.95915 16.5914 7.92273 16.6145C7.88631 16.6377 7.8548 16.6677 7.83 16.703C7.8052 16.7383 7.78759 16.7781 7.77818 16.8202C7.76877 16.8623 7.76774 16.9058 7.77515 16.9483C7.78256 16.9908 7.79827 17.0314 7.82137 17.0678C7.84448 17.1042 7.87453 17.1357 7.90982 17.1605C7.9451 17.1853 7.98492 17.2029 8.02701 17.2124C8.0691 17.2218 8.11263 17.2228 8.15512 17.2154L12.5782 16.441ZM12.5454 17.8519C12.6302 17.8359 12.7052 17.7872 12.7543 17.7163C12.8034 17.6454 12.8226 17.558 12.8078 17.4731C12.7929 17.3881 12.7452 17.3124 12.675 17.2624C12.6048 17.2123 12.5177 17.1919 12.4326 17.2055L8.06849 17.9734C8.02461 17.9792 7.98235 17.9938 7.94426 18.0163C7.90618 18.0389 7.87305 18.0689 7.84687 18.1046C7.8207 18.1403 7.80202 18.181 7.79196 18.2241C7.78189 18.2672 7.78066 18.3119 7.78832 18.3555C7.79599 18.3991 7.8124 18.4407 7.83656 18.4778C7.86072 18.5148 7.89214 18.5467 7.92892 18.5713C7.9657 18.5959 8.00709 18.6129 8.05058 18.6211C8.09408 18.6293 8.13879 18.6286 8.18202 18.6191L12.5454 17.8519Z" fill="#D3D3D3"/>
<path d="M9.05024 3.56999C8.3218 4.82999 8.6893 6.40499 9.87055 7.08092C11.0518 7.75686 12.594 7.29093 13.3224 6.03092C14.0509 4.77092 13.6834 3.19592 12.5021 2.51999C11.3209 1.84405 9.77868 2.30999 9.05024 3.56999Z" fill="#FFF478"/>
</svg>
