<svg width="33" height="33" viewBox="0 0 33 33" fill="none" xmlns="http://www.w3.org/2000/svg">
<path d="M8.21267 31.6998C8.03986 31.6129 7.90438 31.4664 7.83133 31.2873C7.75828 31.1082 7.75261 30.9087 7.81536 30.7258L8.84579 27.7088L10.8631 29.0699L9.23284 31.4383C9.12293 31.5976 8.95914 31.7118 8.77166 31.7599C8.58418 31.8079 8.38565 31.7866 8.21267 31.6998ZM24.4432 31.6998C24.7995 31.5204 24.9712 31.1051 24.8405 30.7258L23.7973 27.6729L21.6723 28.8956L23.423 31.4383C23.5329 31.5976 23.6967 31.7118 23.8842 31.7599C24.0717 31.8079 24.2702 31.7866 24.4432 31.6998Z" fill="#82AEC0"/>
<path d="M8.84578 27.7088L8.32031 29.2468C8.64585 29.0596 9.07135 29.0776 9.4097 29.2442C9.74805 29.4108 10.0069 29.703 10.2043 30.026L10.8015 29.1596C10.8015 29.1237 8.84578 27.7088 8.84578 27.7088ZM23.8049 27.6703L24.374 29.3621C24.0484 29.175 23.6588 29.1801 23.3179 29.3467C22.9796 29.5133 22.7207 29.8055 22.5233 30.1285L21.7415 28.993L23.8049 27.6703Z" fill="#2F7889"/>
<path d="M16.3279 29.7184C22.2751 29.7184 27.0962 24.8973 27.0962 18.9502C27.0962 13.003 22.2751 8.18192 16.3279 8.18192C10.3808 8.18192 5.55969 13.003 5.55969 18.9502C5.55969 24.8973 10.3808 29.7184 16.3279 29.7184Z" fill="#FFEFA1"/>
<path d="M16.3279 30.6514C23.3155 30.6514 28.9801 24.9868 28.9801 17.9992C28.9801 11.0116 23.3155 5.34695 16.3279 5.34695C9.34026 5.34695 3.67566 11.0116 3.67566 17.9992C3.67566 24.9868 9.34026 30.6514 16.3279 30.6514Z" fill="#EF7722"/>
<path d="M16.328 30.5284C22.8966 30.5284 28.2215 25.2035 28.2215 18.6349C28.2215 12.0663 22.8966 6.74136 16.328 6.74136C9.75935 6.74136 4.43445 12.0663 4.43445 18.6349C4.43445 25.2035 9.75935 30.5284 16.328 30.5284Z" fill="url(#paint0_linear_489_945)" fill-opacity="0.8"/>
<path d="M16.328 28.8956C21.9948 28.8956 26.5887 24.3017 26.5887 18.6349C26.5887 12.968 21.9948 8.37415 16.328 8.37415C10.6611 8.37415 6.06726 12.968 6.06726 18.6349C6.06726 24.3017 10.6611 28.8956 16.328 28.8956Z" fill="#FAFAFA"/>
<path d="M16.4048 19.7755C17.0348 19.7755 17.5455 19.2648 17.5455 18.6349C17.5455 18.0049 17.0348 17.4942 16.4048 17.4942C15.7748 17.4942 15.2642 18.0049 15.2642 18.6349C15.2642 19.2648 15.7748 19.7755 16.4048 19.7755Z" fill="#563428"/>
<path d="M16.3279 10.9118C16.1203 10.9118 15.9511 10.7426 15.9511 10.535V9.40715C15.9511 9.19952 16.1203 9.03035 16.3279 9.03035C16.5355 9.03035 16.7047 9.19952 16.7047 9.40715V10.535C16.7047 10.7426 16.5355 10.9118 16.3279 10.9118ZM16.3279 28.2368C16.1203 28.2368 15.9511 28.0676 15.9511 27.86V26.7322C15.9511 26.5246 16.1203 26.3554 16.3279 26.3554C16.5355 26.3554 16.7047 26.5246 16.7047 26.7322V27.86C16.7047 28.0676 16.5355 28.2368 16.3279 28.2368ZM25.5531 19.0091H24.4252C24.2176 19.0091 24.0484 18.8399 24.0484 18.6323C24.0484 18.4247 24.2176 18.2555 24.4252 18.2555H25.5531C25.7607 18.2555 25.9299 18.4247 25.9299 18.6323C25.9299 18.8425 25.7607 19.0091 25.5531 19.0091ZM8.23058 19.0091H7.10275C6.89513 19.0091 6.72595 18.8399 6.72595 18.6323C6.72595 18.4247 6.89513 18.2555 7.10275 18.2555H8.23058C8.43821 18.2555 8.60738 18.4247 8.60738 18.6323C8.60738 18.8425 8.43821 19.0091 8.23058 19.0091Z" fill="#B2947C"/>
<path d="M16.3279 10.9118C16.1203 10.9118 15.9511 10.7426 15.9511 10.535V9.40715C15.9511 9.19952 16.1203 9.03035 16.3279 9.03035C16.5356 9.03035 16.7047 9.19952 16.7047 9.40715V10.535C16.7047 10.7426 16.5356 10.9118 16.3279 10.9118ZM16.3279 28.2368C16.1203 28.2368 15.9511 28.0676 15.9511 27.86V26.7322C15.9511 26.5246 16.1203 26.3554 16.3279 26.3554C16.5356 26.3554 16.7047 26.5246 16.7047 26.7322V27.86C16.7047 28.0676 16.5356 28.2368 16.3279 28.2368ZM11.9525 11.8089L11.3885 10.8323C11.2835 10.6529 11.345 10.4222 11.527 10.3171C11.7064 10.212 11.9371 10.2735 12.0422 10.4555L12.6061 11.4321C12.7112 11.6115 12.6497 11.8422 12.4677 11.9473C12.2883 12.0499 12.0576 11.9883 11.9525 11.8089ZM20.6163 26.8117L20.0524 25.8351C19.9473 25.6556 20.0113 25.4249 20.1908 25.3198C20.3702 25.2147 20.6009 25.2788 20.706 25.4583L21.2699 26.4349C21.375 26.6143 21.3109 26.845 21.1315 26.9501C20.9495 27.0526 20.7188 26.9911 20.6163 26.8117Z" fill="#B2947C"/>
<path d="M11.9525 11.8089L11.3886 10.8323C11.2835 10.6529 11.345 10.4222 11.527 10.3171C11.7064 10.212 11.9371 10.2735 12.0422 10.4555L12.6061 11.4321C12.7112 11.6116 12.6497 11.8422 12.4677 11.9473C12.2883 12.0499 12.0576 11.9884 11.9525 11.8089ZM20.6163 26.8117L20.0524 25.8351C19.9473 25.6556 20.0113 25.4249 20.1908 25.3198C20.3702 25.2148 20.6009 25.2788 20.706 25.4583L21.2699 26.4349C21.375 26.6143 21.3109 26.845 21.1315 26.9501C20.9495 27.0526 20.7188 26.9911 20.6163 26.8117ZM9.12776 14.9105L8.15116 14.3465C7.97173 14.2415 7.91022 14.0133 8.01275 13.8313C8.11784 13.6519 8.34597 13.5904 8.52796 13.6929L9.50456 14.2568C9.68399 14.3619 9.74551 14.5901 9.64298 14.772C9.53788 14.954 9.30719 15.0156 9.12776 14.9105ZM24.1305 23.5717L23.1539 23.0078C22.9745 22.9027 22.913 22.6746 23.0155 22.4926C23.1206 22.3131 23.3487 22.2516 23.5307 22.3542L24.5073 22.9181C24.6867 23.0232 24.7482 23.2513 24.6457 23.4333C24.5406 23.6153 24.3099 23.6768 24.1305 23.5717ZM20.1882 11.9473C20.0088 11.8422 19.9473 11.6141 20.0498 11.4321L20.6137 10.4555C20.7188 10.2761 20.9469 10.2146 21.1289 10.3171C21.3084 10.4222 21.3699 10.6503 21.2673 10.8323L20.7034 11.8089C20.5983 11.9884 20.3702 12.0499 20.1882 11.9473ZM11.527 26.9501C11.3475 26.845 11.286 26.6169 11.3886 26.4349L11.9525 25.4583C12.0576 25.2788 12.2857 25.2173 12.4677 25.3198C12.6471 25.4249 12.7086 25.6531 12.6061 25.8351L12.0422 26.8117C11.9371 26.9911 11.7064 27.0526 11.527 26.9501ZM23.0155 14.772C22.9104 14.5926 22.9719 14.3619 23.1539 14.2568L24.1305 13.6929C24.3099 13.5878 24.5406 13.6519 24.6457 13.8313C24.7508 14.0108 24.6867 14.2415 24.5073 14.3465L23.5307 14.9105C23.3487 15.0156 23.118 14.954 23.0155 14.772ZM8.01275 23.4359C7.90765 23.2564 7.97173 23.0257 8.15116 22.9206L9.12776 22.3567C9.30719 22.2516 9.53788 22.3157 9.64298 22.4951C9.74807 22.6746 9.68399 22.9053 9.50456 23.0103L8.52796 23.5743C8.34597 23.6768 8.11528 23.6153 8.01275 23.4359Z" fill="#B2947C"/>
<path d="M12.1729 16.2741L16.3279 18.6349" stroke="#563428" stroke-width="0.625" stroke-miterlimit="10" stroke-linecap="round"/>
<path d="M22.267 15.2283L16.5176 18.6349" stroke="#563428" stroke-width="0.4375" stroke-miterlimit="10" stroke-linecap="round"/>
<path d="M23.5794 8.32802L22.5182 7.63338L26.1298 1.23549L27.232 1.85836L23.5794 8.32802Z" fill="#82AEC0"/>
<path d="M28.4957 9.02522C28.811 9.1175 29.1494 8.9432 29.2468 8.63048C30.0773 5.97751 29.0007 3.09129 26.3964 1.7507C23.7742 0.399869 20.9264 1.28676 19.268 3.55011C19.0809 3.80387 19.1245 4.16016 19.3603 4.36779C19.896 4.84199 21.0854 5.734 23.4564 6.93361C25.9607 8.19985 27.6781 8.78428 28.4957 9.02522Z" fill="#EF7722"/>
<path d="M27.132 2.64016C27.132 2.64016 27.8011 1.78659 26.8296 1.24575C26.0734 0.825371 25.5941 1.74558 25.5941 1.74558C25.4275 2.05061 27.0167 2.85034 27.132 2.64016ZM9.13286 8.33571L5.4751 1.85836L6.57986 1.23549L10.1325 7.53085L9.13286 8.33571Z" fill="#82AEC0"/>
<path d="M4.31393 9.02522C3.99865 9.1175 3.6603 8.9432 3.5629 8.63048C2.7324 5.97751 3.80897 3.09129 6.41324 1.7507C9.03545 0.399869 11.8832 1.28676 13.5416 3.55011C13.7288 3.80387 13.6852 4.16016 13.4494 4.36779C12.9137 4.84199 11.7243 5.734 9.35329 6.93361C6.84899 8.19985 5.13161 8.78428 4.31393 9.02522Z" fill="#EF7722"/>
<path d="M5.67756 2.64016C5.67756 2.64016 5.00855 1.78659 5.98002 1.24575C6.73618 0.825371 7.21551 1.74558 7.21551 1.74558C7.38212 2.05061 5.7929 2.85034 5.67756 2.64016Z" fill="#82AEC0"/>
<path d="M16.3279 5.95188V2.43509" stroke="#82AEC0" stroke-width="0.46325" stroke-miterlimit="10"/>
<path d="M16.3433 3.68596C15.3385 3.68596 14.3312 3.30147 14.3312 3.30147V2.54019C14.3312 2.54019 15.2668 2.12238 16.392 2.12238C17.5173 2.12238 18.3529 2.54019 18.3529 2.54019V3.30147C18.3555 3.30404 17.3507 3.68596 16.3433 3.68596Z" fill="#82AEC0"/>
<path d="M14.585 2.50943C14.4747 2.55044 14.4645 2.70167 14.567 2.76063C14.7157 2.84521 14.8925 2.93236 14.9541 2.92211C15.7999 2.79138 17.0277 2.85547 17.8762 2.98363C17.9351 2.99388 18.1043 2.85034 18.2248 2.74268C18.2914 2.68116 18.276 2.57607 18.194 2.53762C17.9274 2.41715 17.3251 2.20184 16.392 2.20184C15.5308 2.20184 14.9079 2.38383 14.585 2.50943Z" fill="#94D1E0"/>
<path d="M24.3664 2.02497C24.4458 2.29668 24.1536 2.51968 23.9178 2.67604C23.3232 3.07539 22.8455 3.62563 22.5336 4.27039C22.385 4.57798 22.2184 4.95477 21.8774 5.00348C21.7416 5.02142 21.6083 4.98041 21.4801 4.93427C21.2828 4.8625 21.0905 4.78047 20.9034 4.68563C20.6804 4.57285 20.4523 4.42931 20.3497 4.20118C20.2165 3.90128 20.3421 3.54755 20.5215 3.27072C20.9495 2.61709 21.6468 2.21209 22.3645 1.94551C22.7977 1.78403 24.1511 1.28932 24.3664 2.02497ZM6.69785 4.1858C6.86446 4.53184 7.05158 4.86762 7.2592 5.19059C7.51296 5.58534 7.80774 6.02622 7.70008 6.48248C7.57448 7.00538 6.99518 7.25658 6.4851 7.43088C6.22364 7.52059 5.96476 7.61031 5.7033 7.70002C5.56489 7.74872 5.41878 7.79742 5.27268 7.78974C5.04198 7.77948 4.83436 7.63338 4.70363 7.44626C4.57034 7.25914 4.5037 7.03357 4.45244 6.81057C4.26019 5.95188 4.29864 5.04193 4.56265 4.20118C4.71645 3.71929 4.9574 3.21176 5.50337 3.17331C6.16725 3.12717 6.44921 3.66802 6.69785 4.1858Z" fill="url(#paint1_linear_489_945)" fill-opacity="0.8"/>
<defs>
<linearGradient id="paint0_linear_489_945" x1="23.694" y1="2.26093" x2="4.39809" y2="13.6201" gradientUnits="userSpaceOnUse">
<stop stop-color="#FAC7A2"/>
<stop offset="0.25" stop-color="#F5A368"/>
<stop offset="0.5" stop-color="#F1863A"/>
<stop offset="1" stop-color="#EF7722"/>
</linearGradient>
<linearGradient id="paint1_linear_489_945" x1="20.5639" y1="0.472821" x2="15.8779" y2="9.4538" gradientUnits="userSpaceOnUse">
<stop stop-color="#FAC7A2"/>
<stop offset="0.25" stop-color="#F5A368"/>
<stop offset="0.5" stop-color="#F1863A"/>
<stop offset="1" stop-color="#EF7722"/>
</linearGradient>
</defs>
</svg>
