<svg width="25" height="25" viewBox="0 0 25 25" fill="none" xmlns="http://www.w3.org/2000/svg">
<path d="M3.42325 22.0719H21.1257C23.2628 22.0719 24.3522 21.0031 24.3522 18.8866V8.12902C24.3522 6.01249 23.2628 4.95423 21.1257 4.95423H18.7216C17.9202 4.95423 17.6739 4.78983 17.2114 4.27604L16.3789 3.35105C15.8756 2.78641 15.3517 2.47778 14.2829 2.47778H10.1937C9.13542 2.47778 8.61111 2.78641 8.09776 3.35105L7.26526 4.27604C6.81329 4.77931 6.55639 4.95423 5.75502 4.95423H3.42281C1.28568 4.95423 0.196289 6.01249 0.196289 8.12902V18.8866C0.196289 21.0031 1.28612 22.0719 3.42325 22.0719ZM3.4535 20.4174C2.43644 20.4174 1.85076 19.8729 1.85076 18.8042V8.22152C1.85076 7.15273 2.43644 6.60826 3.4535 6.60826H6.16579C7.09079 6.60826 7.58397 6.43378 8.09776 5.85862L8.90921 4.95423C9.49489 4.29665 9.793 4.13225 10.7075 4.13225H13.7692C14.6836 4.13225 14.9817 4.29665 15.5674 4.95423L16.3789 5.85818C16.8927 6.43378 17.3858 6.60826 18.3108 6.60826H21.095C22.1121 6.60826 22.6982 7.15273 22.6982 8.22152V18.8042C22.6982 19.8729 22.1125 20.4174 21.095 20.4174H3.4535ZM12.2694 18.784C13.0076 18.7861 13.7388 18.6421 14.421 18.3602C15.1033 18.0784 15.723 17.6643 16.2444 17.1419C16.7659 16.6195 17.1788 15.999 17.4593 15.3163C17.7399 14.6335 17.8825 13.902 17.879 13.1639C17.879 10.0399 15.3925 7.54377 12.269 7.54377C9.16611 7.54377 6.6695 10.0399 6.6695 13.1639C6.6695 16.2869 9.16611 18.784 12.269 18.784M19.6562 10.6563C20.355 10.6563 20.9302 10.0917 20.9302 9.39288C20.9302 9.05501 20.796 8.73098 20.5571 8.49207C20.3182 8.25315 19.9941 8.11893 19.6562 8.11893C19.3184 8.11893 18.9943 8.25315 18.7554 8.49207C18.5165 8.73098 18.3823 9.05501 18.3823 9.39288C18.3823 10.0917 18.9575 10.6563 19.6562 10.6563ZM12.2694 17.2225C10.0398 17.2225 8.22138 15.4141 8.22138 13.1639C8.22138 10.9136 10.0297 9.10574 12.2694 9.10574C12.8026 9.10511 13.3306 9.20964 13.8232 9.41335C14.3159 9.61706 14.7636 9.91595 15.1405 10.2929C15.5175 10.6699 15.8165 11.1175 16.0202 11.6101C16.224 12.1028 16.3286 12.6308 16.328 13.1639C16.3287 13.697 16.2241 14.2251 16.0204 14.7178C15.8166 15.2105 15.5177 15.6581 15.1407 16.0351C14.7637 16.4121 14.316 16.7111 13.8233 16.9148C13.3306 17.1185 12.8026 17.2231 12.2694 17.2225Z" fill="white"/>
</svg>
