<svg width="13" height="13" viewBox="0 0 13 13" fill="none" xmlns="http://www.w3.org/2000/svg">
<path d="M5.5 0.75C5.03451 0.749722 4.5804 0.914419 4.20026 1.22139C3.82012 1.52837 3.53266 1.96251 3.3775 2.46399H1V4.17797H3.3775C3.53245 4.67977 3.8198 5.11429 4.19995 5.42165C4.5801 5.729 5.03432 5.89406 5.5 5.89406C5.96568 5.89406 6.4199 5.729 6.80005 5.42165C7.1802 5.11429 7.46755 4.67977 7.6225 4.17797H13V2.46399H7.6225C7.46734 1.96251 7.17988 1.52837 6.79974 1.22139C6.4196 0.914419 5.96549 0.749722 5.5 0.75ZM4.75 3.32098C4.75 3.09369 4.82902 2.87571 4.96967 2.71499C5.11032 2.55428 5.30109 2.46399 5.5 2.46399C5.69891 2.46399 5.88968 2.55428 6.03033 2.71499C6.17098 2.87571 6.25 3.09369 6.25 3.32098C6.25 3.54827 6.17098 3.76625 6.03033 3.92696C5.88968 4.08768 5.69891 4.17797 5.5 4.17797C5.30109 4.17797 5.11032 4.08768 4.96967 3.92696C4.82902 3.76625 4.75 3.54827 4.75 3.32098ZM8.5 7.60594C8.03451 7.60566 7.5804 7.77036 7.20026 8.07734C6.82012 8.38431 6.53266 8.81845 6.3775 9.31993H1V11.0339H6.3775C6.53245 11.5357 6.8198 11.9702 7.19995 12.2776C7.5801 12.5849 8.03432 12.75 8.5 12.75C8.96568 12.75 9.4199 12.5849 9.80005 12.2776C10.1802 11.9702 10.4675 11.5357 10.6225 11.0339H13V9.31993H10.6225C10.4673 8.81845 10.1799 8.38431 9.79974 8.07734C9.4196 7.77036 8.96549 7.60566 8.5 7.60594ZM7.75 10.1769C7.75 9.94963 7.82902 9.73165 7.96967 9.57094C8.11032 9.41022 8.30109 9.31993 8.5 9.31993C8.69891 9.31993 8.88968 9.41022 9.03033 9.57094C9.17098 9.73165 9.25 9.94963 9.25 10.1769C9.25 10.4042 9.17098 10.6222 9.03033 10.7829C8.88968 10.9436 8.69891 11.0339 8.5 11.0339C8.30109 11.0339 8.11032 10.9436 7.96967 10.7829C7.82902 10.6222 7.75 10.4042 7.75 10.1769Z" fill="white"/>
</svg>
