<svg width="19" height="20" viewBox="0 0 19 20" fill="none" xmlns="http://www.w3.org/2000/svg">
<path d="M9.5 0C6.98132 0.00236318 4.56662 0.830934 2.78564 2.30394C1.00466 3.77694 0.00285727 5.77408 0 7.85722C0 14.5805 8.63636 19.6582 9.00449 19.8707C9.1497 19.9549 9.3227 20 9.5 20C9.6773 20 9.8503 19.9549 9.99551 19.8707C10.3636 19.6582 19 14.5805 19 7.85722C18.9971 5.77408 17.9953 3.77694 16.2144 2.30394C14.4334 0.830934 12.0187 0.00236318 9.5 0ZM9.5 5.00005C10.1832 5.00005 10.8511 5.16762 11.4192 5.48157C11.9873 5.79552 12.4301 6.24175 12.6916 6.76383C12.9531 7.28591 13.0215 7.86039 12.8882 8.41463C12.7549 8.96887 12.4259 9.47796 11.9427 9.87755C11.4596 10.2771 10.8441 10.5492 10.1739 10.6595C9.50383 10.7697 8.80924 10.7132 8.178 10.4969C7.54677 10.2807 7.00724 9.91444 6.62765 9.44458C6.24806 8.97472 6.04545 8.42232 6.04545 7.85722C6.04545 7.09945 6.40941 6.37272 7.05727 5.8369C7.70512 5.30107 8.5838 5.00005 9.5 5.00005Z" fill="#D4D6DD"/>
</svg>
