<svg width="19" height="19" viewBox="0 0 19 19" fill="none" xmlns="http://www.w3.org/2000/svg">
<path fill-rule="evenodd" clip-rule="evenodd" d="M0 0H16.6667V8.72417C16.0354 8.16014 15.2851 7.74586 14.4715 7.5122C13.6578 7.27853 12.802 7.23151 11.9677 7.37463C11.1334 7.51776 10.3421 7.84734 9.65289 8.33881C8.96368 8.83028 8.39428 9.47097 7.98713 10.2131C7.57998 10.9553 7.34558 11.7798 7.3014 12.6251C7.25723 13.4704 7.40441 14.3149 7.73199 15.0954C8.05957 15.876 8.55909 16.5725 9.19333 17.1331C9.82756 17.6938 10.5801 18.104 11.395 18.3333H0V0Z" fill="currentColor"/>
<path fill-rule="evenodd" clip-rule="evenodd" d="M10.625 12.9166C10.625 12.3089 10.8664 11.726 11.2962 11.2962C11.726 10.8664 12.3089 10.625 12.9167 10.625C13.5245 10.625 14.1073 10.8664 14.5371 11.2962C14.9669 11.726 15.2083 12.3089 15.2083 12.9166C15.2083 13.5244 14.9669 14.1073 14.5371 14.5371C14.1073 14.9669 13.5245 15.2083 12.9167 15.2083C12.3089 15.2083 11.726 14.9669 11.2962 14.5371C10.8664 14.1073 10.625 13.5244 10.625 12.9166ZM12.9167 8.54165C12.2417 8.54181 11.576 8.69813 10.9715 8.99838C10.367 9.29862 9.8402 9.73466 9.43226 10.2724C9.02432 10.8101 8.74633 11.4349 8.62002 12.0979C8.4937 12.7609 8.52251 13.4442 8.70417 14.0942C8.88583 14.7442 9.21543 15.3434 9.66717 15.8449C10.1189 16.3463 10.6806 16.7365 11.3082 16.9848C11.9358 17.2331 12.6123 17.3329 13.2849 17.2762C13.9574 17.2196 14.6078 17.0081 15.185 16.6583L17.18 18.6533L18.6533 17.18L16.6583 15.185C17.0607 14.5214 17.2793 13.7628 17.2917 12.9869C17.3042 12.211 17.1101 11.4458 16.7293 10.7697C16.3485 10.0935 15.7947 9.53086 15.1247 9.13934C14.4547 8.74781 13.6927 8.54153 12.9167 8.54165ZM2.5 4.99998H10.4167V3.33331H2.5V4.99998ZM2.5 8.74998H7.91667V7.08331H2.5V8.74998Z" fill="currentColor"/>
</svg>
