<svg width="22" height="20" viewBox="0 0 22 20" fill="none" xmlns="http://www.w3.org/2000/svg">
<path d="M4.56641 12.27V14.1623C4.56641 16.325 4.56641 17.4063 5.23826 18.0781C5.91011 18.75 6.99144 18.75 9.1541 18.75H12.1914C14.3541 18.75 15.4354 18.75 16.1073 18.0781C16.7791 17.4063 16.7791 16.325 16.7791 14.1623V12.27" stroke="currentColor" stroke-width="1.5" stroke-linecap="round"/>
<path d="M4.56647 12.2103C2.40046 11.8675 0.75 10.0906 0.75 7.95005C0.75 5.56419 2.80043 3.63007 5.32977 3.63007C5.64405 3.63007 5.95093 3.65993 6.2474 3.7168" stroke="currentColor" stroke-width="1.5" stroke-linecap="round"/>
<path d="M16.9334 12.2103C19.0994 11.8675 20.7498 10.0906 20.7498 7.95005C20.7498 5.56419 18.6994 3.63007 16.1701 3.63007C15.8558 3.63007 15.5489 3.65993 15.2524 3.7168" stroke="currentColor" stroke-width="1.5" stroke-linecap="round"/>
<path d="M6.2373 6.14998C6.14311 5.80479 6.09302 5.4429 6.09302 5.06998C6.09302 2.68412 8.14345 0.75 10.6728 0.75C13.2021 0.75 15.2526 2.68412 15.2526 5.06998C15.2526 5.4429 15.2025 5.80479 15.1083 6.14998" stroke="currentColor" stroke-width="1.5" stroke-linecap="round"/>
<path d="M4.56641 15.5101H16.7791" stroke="currentColor" stroke-width="1.5"/>
<path d="M10.6428 8.55676V10.8192" stroke="currentColor" stroke-width="1.5" stroke-linecap="round"/>
<path d="M6.40117 8.74652C6.20943 9.15048 6.56093 10.6906 6.97636 10.9431" stroke="currentColor" stroke-width="1.5" stroke-linecap="round"/>
<path d="M15.1987 8.74652C15.3904 9.15048 15.0389 10.6906 14.6235 10.9431" stroke="currentColor" stroke-width="1.5" stroke-linecap="round"/>
</svg>
