<svg width="24" height="24" viewBox="0 0 24 24" fill="none" xmlns="http://www.w3.org/2000/svg">
<path d="M16 4.5V2H2V7.72C2 10.085 2.86 12.293 4.323 14" stroke="#7C3AED" stroke-width="1.5"/>
<path d="M22.2034 9.123L8.68037 5.5L7.20037 11.025C6.65714 13.0509 6.78875 15.1986 7.57528 17.143C8.3618 19.0874 9.76041 20.7226 11.5594 21.801C13.6564 21.7666 15.6852 21.0499 17.3385 19.7594C18.9918 18.4689 20.1797 16.6749 20.7224 14.649L22.2034 9.123Z" stroke="#7C3AED" stroke-width="1.5"/>
<path d="M9.5 12.168C9.6029 11.7837 9.85426 11.456 10.1988 11.257C10.5433 11.058 10.9527 11.0041 11.337 11.107C11.7213 11.2099 12.049 11.4612 12.248 11.8057C12.4469 12.1502 12.5009 12.5597 12.398 12.944M15.225 13.849C15.3279 13.4647 15.5793 13.137 15.9238 12.938C16.2683 12.739 16.6777 12.6851 17.062 12.788C17.4463 12.8909 17.774 13.1422 17.973 13.4867C18.1719 13.8312 18.2259 14.2407 18.123 14.625" stroke="#7C3AED" stroke-width="1.5"/>
</svg>
