<svg width="24" height="24" viewBox="0 0 24 24" fill="none" xmlns="http://www.w3.org/2000/svg">
<path d="M16.0001 1.5C15.5727 1.5 15.1794 1.505 14.8201 1.515C12.7601 1.571 11.2461 3.0205 11.0276 5H11.0001C10.2217 5.00033 9.50205 5.00967 8.84105 5.028C4.54305 5.1455 1.51855 8.4305 1.50055 12.73C1.49982 12.91 1.49982 13.09 1.50055 13.27C1.50855 15.235 2.14505 16.9885 3.24355 18.3235C2.91055 19.047 2.61455 19.7355 2.39555 20.261C2.15205 20.8445 2.31305 21.518 2.81705 21.899C3.01165 22.0501 3.21537 22.189 3.42705 22.315C3.64893 22.4357 3.87765 22.5434 4.11205 22.6375C4.68905 22.875 5.34305 22.681 5.72605 22.1875C6.11278 21.6894 6.49149 21.1852 6.86205 20.675C7.50669 20.8564 8.17155 20.9562 8.84105 20.972C9.50255 20.99 9.83255 21.0005 11.0001 21C11.7784 20.9997 12.4981 20.9903 13.1591 20.972C13.8286 20.9562 14.4934 20.8564 15.1381 20.675C15.5571 21.2525 15.9591 21.781 16.2741 22.1875C16.6571 22.681 17.3111 22.875 17.8881 22.637C18.1371 22.5345 18.3871 22.4215 18.5731 22.315C18.7556 22.2105 18.9726 22.0575 19.1826 21.899C19.6871 21.518 19.8481 20.8445 19.6046 20.261C19.3335 19.6101 19.0506 18.9641 18.7561 18.3235C19.4361 17.497 19.9391 16.5105 20.2256 15.413C20.5667 15.4536 20.9093 15.4806 21.2526 15.494C21.8876 15.517 22.3881 15.0385 22.4361 14.405C22.4711 13.939 22.5001 13.31 22.5001 12.5C22.5001 11.69 22.4711 11.0605 22.4361 10.5955C22.3876 9.961 21.8876 9.483 21.2526 9.506C20.803 9.52456 20.3547 9.56477 19.9091 9.6265C19.2451 7.9785 18.0541 6.655 16.4976 5.858C16.4992 5.742 16.5001 5.62267 16.5001 5.5C16.5001 2.5 16.0001 1.5 16.0001 1.5Z" stroke="#FFEBDC" stroke-width="1.5" stroke-linecap="round" stroke-linejoin="round"/>
<path d="M5.75 9.24539C6.637 8.35389 7.8915 7.80189 9.365 7.76389C9.597 7.75722 9.83933 7.75256 10.092 7.74989M15.5 8.99989V9.49989M3.5715 6.99989C2.213 6.99989 1 5.87239 1 4.48139C1 3.09039 2.213 1.96289 3.5715 1.96289C4.8575 1.96289 5.5 2.64939 5.5 3.33639" stroke="#FFEBDC" stroke-width="1.5" stroke-linecap="round" stroke-linejoin="round"/>
</svg>
